<svg width="20" height="21" viewBox="0 0 20 21" fill="none" xmlns="http://www.w3.org/2000/svg">
<path d="M11.0281 0.579355C11.7578 0.576555 12.4875 0.583889 13.2171 0.601355L13.4111 0.608355C13.6351 0.616355 13.8561 0.626355 14.1231 0.638355C15.1871 0.688355 15.9131 0.856356 16.5501 1.10336C17.2101 1.35736 17.7661 1.70136 18.3221 2.25736C18.8304 2.75696 19.2239 3.3613 19.4751 4.02836C19.7221 4.66536 19.8901 5.39235 19.9401 6.45636C19.9521 6.72235 19.9621 6.94436 19.9701 7.16836L19.9761 7.36236C19.9938 8.09155 20.0015 8.82095 19.9991 9.55036L20.0001 10.2964V11.6064C20.0025 12.3361 19.9949 13.0658 19.9771 13.7954L19.9711 13.9894C19.9631 14.2134 19.9531 14.4344 19.9411 14.7014C19.8911 15.7654 19.7211 16.4914 19.4751 17.1284C19.2247 17.7961 18.8312 18.401 18.3221 18.9004C17.822 19.4087 17.2174 19.8021 16.5501 20.0534C15.9131 20.3004 15.1871 20.4684 14.1231 20.5184C13.8561 20.5304 13.6351 20.5404 13.4111 20.5484L13.2171 20.5544C12.4875 20.5721 11.7578 20.5798 11.0281 20.5774L10.2821 20.5784H8.97306C8.24332 20.5808 7.51358 20.5732 6.78406 20.5554L6.59006 20.5494C6.35267 20.5408 6.11533 20.5308 5.87806 20.5194C4.81406 20.4694 4.08806 20.2994 3.45006 20.0534C2.78274 19.8027 2.1783 19.4092 1.67906 18.9004C1.1701 18.4006 0.776282 17.7959 0.525058 17.1284C0.278058 16.4914 0.110058 15.7654 0.0600581 14.7014C0.0489211 14.4641 0.038921 14.2267 0.0300582 13.9894L0.0250583 13.7954C0.00662188 13.0658 -0.00171235 12.3361 5.82019e-05 11.6064V9.55036C-0.00273276 8.82096 0.00460135 8.09155 0.0220583 7.36236L0.0290582 7.16836C0.0370582 6.94436 0.0470582 6.72235 0.0590582 6.45636C0.109058 5.39136 0.277058 4.66636 0.524058 4.02836C0.775431 3.36098 1.17002 2.7568 1.68006 2.25836C2.17895 1.74911 2.78302 1.35493 3.45006 1.10336C4.08806 0.856356 4.81306 0.688355 5.87806 0.638355L6.59006 0.608355L6.78406 0.603356C7.51324 0.584928 8.24264 0.576594 8.97206 0.578355L11.0281 0.579355ZM10.0001 5.57936C9.33756 5.56999 8.67982 5.69238 8.06503 5.93942C7.45025 6.18647 6.8907 6.55323 6.4189 7.01841C5.9471 7.48359 5.57246 8.03789 5.31675 8.64912C5.06103 9.26034 4.92935 9.9163 4.92935 10.5789C4.92935 11.2414 5.06103 11.8974 5.31675 12.5086C5.57246 13.1198 5.9471 13.6741 6.4189 14.1393C6.8907 14.6045 7.45025 14.9712 8.06503 15.2183C8.67982 15.4653 9.33756 15.5877 10.0001 15.5784C11.3261 15.5784 12.5979 15.0516 13.5356 14.1139C14.4733 13.1762 15.0001 11.9044 15.0001 10.5784C15.0001 9.25227 14.4733 7.9805 13.5356 7.04282C12.5979 6.10514 11.3261 5.57936 10.0001 5.57936ZM10.0001 7.57936C10.3986 7.57201 10.7945 7.64415 11.1649 7.79156C11.5352 7.93897 11.8724 8.1587 12.1568 8.4379C12.4413 8.7171 12.6672 9.05019 12.8215 9.4177C12.9758 9.78521 13.0553 10.1798 13.0553 10.5783C13.0554 10.9769 12.976 11.3715 12.8219 11.7391C12.6677 12.1066 12.4419 12.4398 12.1576 12.7191C11.8732 12.9984 11.536 13.2182 11.1658 13.3658C10.7955 13.5133 10.3996 13.5856 10.0011 13.5784C9.20541 13.5784 8.44235 13.2623 7.87974 12.6997C7.31713 12.1371 7.00106 11.374 7.00106 10.5784C7.00106 9.78271 7.31713 9.01964 7.87974 8.45703C8.44235 7.89443 9.20541 7.57836 10.0011 7.57836L10.0001 7.57936ZM15.2501 4.07936C14.9275 4.09227 14.6224 4.22951 14.3987 4.46233C14.175 4.69515 14.05 5.00549 14.05 5.32836C14.05 5.65122 14.175 5.96156 14.3987 6.19438C14.6224 6.42721 14.9275 6.56444 15.2501 6.57736C15.5816 6.57736 15.8995 6.44566 16.1339 6.21124C16.3684 5.97682 16.5001 5.65888 16.5001 5.32736C16.5001 4.99583 16.3684 4.67789 16.1339 4.44347C15.8995 4.20905 15.5816 4.07736 15.2501 4.07736V4.07936Z" fill="#151515"/>
</svg>
