<svg width="20" height="19" viewBox="0 0 20 19" fill="none" xmlns="http://www.w3.org/2000/svg">
<path d="M4.47 2.57888C4.46974 3.10931 4.25877 3.61792 3.88351 3.9928C3.50825 4.36769 2.99943 4.57815 2.469 4.57788C1.93857 4.57762 1.42997 4.36665 1.05508 3.99139C0.680195 3.61613 0.469736 3.10731 0.470001 2.57688C0.470267 2.04645 0.681235 1.53785 1.05649 1.16296C1.43176 0.788075 1.94057 0.577616 2.471 0.577881C3.00143 0.578146 3.51004 0.789114 3.88492 1.16437C4.25981 1.53963 4.47027 2.04845 4.47 2.57888ZM4.53 6.05888H0.530001V18.5789H4.53V6.05888ZM10.85 6.05888H6.87V18.5789H10.81V12.0089C10.81 8.34888 15.58 8.00888 15.58 12.0089V18.5789H19.53V10.6489C19.53 4.47888 12.47 4.70888 10.81 7.73888L10.85 6.05888Z" fill="#151515"/>
</svg>
