<svg width="22" height="22" viewBox="0 0 22 22" fill="none" xmlns="http://www.w3.org/2000/svg">
<g filter="url(#filter0_d_2004_127)">
<path d="M5 19V17C5 15.9391 5.42143 14.9217 6.17157 14.1716C6.92172 13.4214 7.93913 13 9 13H13C14.0609 13 15.0783 13.4214 15.8284 14.1716C16.5786 14.9217 17 15.9391 17 17V19M7 4.99998C7 6.06085 7.42143 7.07827 8.17157 7.82841C8.92172 8.57856 9.93913 8.99998 11 8.99998C12.0609 8.99998 13.0783 8.57856 13.8284 7.82841C14.5786 7.07827 15 6.06085 15 4.99998C15 3.93912 14.5786 2.9217 13.8284 2.17156C13.0783 1.42141 12.0609 0.999985 11 0.999985C9.93913 0.999985 8.92172 1.42141 8.17157 2.17156C7.42143 2.9217 7 3.93912 7 4.99998Z" stroke="#571244" stroke-width="2" stroke-linecap="round" stroke-linejoin="round" shape-rendering="crispEdges"/>
</g>
<defs>
<filter id="filter0_d_2004_127" x="0" y="-1.52588e-05" width="22" height="28" filterUnits="userSpaceOnUse" color-interpolation-filters="sRGB">
<feFlood flood-opacity="0" result="BackgroundImageFix"/>
<feColorMatrix in="SourceAlpha" type="matrix" values="0 0 0 0 0 0 0 0 0 0 0 0 0 0 0 0 0 0 127 0" result="hardAlpha"/>
<feOffset dy="4"/>
<feGaussianBlur stdDeviation="2"/>
<feComposite in2="hardAlpha" operator="out"/>
<feColorMatrix type="matrix" values="0 0 0 0 0 0 0 0 0 0 0 0 0 0 0 0 0 0 0.25 0"/>
<feBlend mode="normal" in2="BackgroundImageFix" result="effect1_dropShadow_2004_127"/>
<feBlend mode="normal" in="SourceGraphic" in2="effect1_dropShadow_2004_127" result="shape"/>
</filter>
</defs>
</svg>
